<svg xmlns="http://www.w3.org/2000/svg" width="196.729" height="136.009" viewBox="0 0 196.729 136.009"><g transform="translate(-228.204 -350.11)"><circle cx="38.28" cy="38.28" r="38.28" transform="translate(228.204 409.559)" fill="#ffc700"/><path d="M43.9,0H36.108V-20.947q0-3.394.293-7.5h-.2a36.881,36.881,0,0,1-1.1,4.639L26.9,0H20.459l-8.35-23.56a45.845,45.845,0,0,1-1.1-4.883h-.22q.317,5.176.317,9.082V0H4V-35.01H15.552l7.153,20.752a29.218,29.218,0,0,1,1.245,5H24.1a50.4,50.4,0,0,1,1.392-5.054l7.153-20.7H43.9ZM69.013.61q-6.25,0-9.827-3.5T55.609-12.4q0-6.2,3.711-9.7t10.034-3.5q6.226,0,9.766,3.5a12.453,12.453,0,0,1,3.54,9.265q0,6.226-3.65,9.839T69.013.61Zm.2-20.312a5.146,5.146,0,0,0-4.248,1.88A8.29,8.29,0,0,0,63.446-12.5q0,7.2,5.811,7.2,5.542,0,5.542-7.4Q74.8-19.7,69.208-19.7Zm8.276-17.139-7.642,7.886H64.276l6.348-7.886ZM117.444-25l-9.3,25H99.354L90.491-25h8.252l4.346,15.405a22.5,22.5,0,0,1,.854,4.443h.1a25.216,25.216,0,0,1,.9-4.3L109.388-25Zm31.269,14.7H132.4q.391,5.444,6.86,5.444a13.394,13.394,0,0,0,7.251-1.953v5.566A19.049,19.049,0,0,1,137.507.61q-6.055,0-9.4-3.357t-3.345-9.363q0-6.226,3.613-9.863a12.038,12.038,0,0,1,8.887-3.638q5.469,0,8.459,3.247t2.991,8.813Zm-7.153-4.736q0-5.371-4.346-5.371A4.149,4.149,0,0,0,134-18.872a6.981,6.981,0,0,0-1.648,3.833Zm21.649-13.916a4.506,4.506,0,0,1-3.2-1.16,3.736,3.736,0,0,1-1.245-2.844,3.6,3.6,0,0,1,1.245-2.832,4.655,4.655,0,0,1,3.2-1.1,4.645,4.645,0,0,1,3.21,1.1,3.619,3.619,0,0,1,1.233,2.832,3.722,3.722,0,0,1-1.233,2.881A4.583,4.583,0,0,1,163.209-28.955ZM167.018,0H159.3V-25h7.715Zm10.858-.659v-6.25a16.425,16.425,0,0,0,3.8,1.709,12.587,12.587,0,0,0,3.577.562,7.671,7.671,0,0,0,3.235-.562,1.814,1.814,0,0,0,1.184-1.709,1.581,1.581,0,0,0-.537-1.221,4.993,4.993,0,0,0-1.379-.854,15.654,15.654,0,0,0-1.843-.659q-1-.293-1.929-.659a18.479,18.479,0,0,1-2.625-1.208,7.586,7.586,0,0,1-1.9-1.5,5.9,5.9,0,0,1-1.172-1.978,7.891,7.891,0,0,1-.4-2.661,6.851,6.851,0,0,1,.916-3.613,7.478,7.478,0,0,1,2.441-2.478,11.155,11.155,0,0,1,3.491-1.416,18.2,18.2,0,0,1,4.089-.452,22.69,22.69,0,0,1,3.369.256,25.146,25.146,0,0,1,3.369.745v5.957a12.174,12.174,0,0,0-3.137-1.282,13.234,13.234,0,0,0-3.284-.427,7.275,7.275,0,0,0-1.428.134,4.7,4.7,0,0,0-1.184.391,2.174,2.174,0,0,0-.806.659,1.517,1.517,0,0,0-.293.916,1.691,1.691,0,0,0,.439,1.172,3.817,3.817,0,0,0,1.147.842,11.327,11.327,0,0,0,1.575.635q.867.281,1.721.574a22.378,22.378,0,0,1,2.783,1.172,8.9,8.9,0,0,1,2.136,1.489,5.848,5.848,0,0,1,1.367,2,7.115,7.115,0,0,1,.476,2.734,7.133,7.133,0,0,1-.964,3.8,7.721,7.721,0,0,1-2.563,2.563,11.626,11.626,0,0,1-3.687,1.44,20.437,20.437,0,0,1-4.333.452A22.34,22.34,0,0,1,177.876-.659ZM40.647,44.99a1.806,1.806,0,0,0-.205-.906,1.947,1.947,0,0,0-.461-.564,1.677,1.677,0,0,0-.513-.291,1.364,1.364,0,0,0-.359-.085,4.139,4.139,0,0,0-2.837,1.179,11.732,11.732,0,0,0-2.324,3.025,25.61,25.61,0,0,0-1.794,4.067q-.769,2.222-1.282,4.307,2.051-1.572,3.828-2.905a33.332,33.332,0,0,0,3.093-2.6,12.748,12.748,0,0,0,2.085-2.529A5.109,5.109,0,0,0,40.647,44.99ZM57.224,58.081a5.631,5.631,0,0,1-.991,2.871,20.354,20.354,0,0,1-2.666,3.35,33.5,33.5,0,0,1-4.05,3.5,30.847,30.847,0,0,1-4.58,2.8A26.361,26.361,0,0,1,40.1,72.454a18.27,18.27,0,0,1-4.785.667,13.535,13.535,0,0,1-5.11-.906,9.98,9.98,0,0,1-3.794-2.666,11.862,11.862,0,0,1-2.375-4.392,20.345,20.345,0,0,1-.82-6.05,22.832,22.832,0,0,1,.393-4.17,27.3,27.3,0,0,1,1.145-4.221,25.232,25.232,0,0,1,1.88-4.067A24.122,24.122,0,0,1,31.3,40.735a16.348,16.348,0,0,1,2.615-2,14.586,14.586,0,0,1,3.162-1.453,11.986,11.986,0,0,1,3.743-.564,6.834,6.834,0,0,1,2.922.6,7.2,7.2,0,0,1,2.17,1.521,6.614,6.614,0,0,1,1.367,2.085,5.984,5.984,0,0,1,.479,2.29,11.033,11.033,0,0,1-1.145,4.973,17.455,17.455,0,0,1-3.2,4.409,34.357,34.357,0,0,1-4.939,4.119Q35.588,58.73,32.1,60.85a3.377,3.377,0,0,0-.53.308q-.359.239-.359.308a4.7,4.7,0,0,0,.342,1.47,4.531,4.531,0,0,0,.957,1.47,5.287,5.287,0,0,0,1.658,1.145,5.755,5.755,0,0,0,2.41.461,16.4,16.4,0,0,0,4.341-.6,20.872,20.872,0,0,0,4.307-1.726,27.019,27.019,0,0,0,4.136-2.734,31.7,31.7,0,0,0,3.828-3.623,4.7,4.7,0,0,1,1.35-1.128,2.751,2.751,0,0,1,1.248-.342,1.311,1.311,0,0,1,1.008.479A2.664,2.664,0,0,1,57.224,58.081ZM126.014,74.1Q123.4,75.61,118.47,75.61a12.758,12.758,0,0,1-9.326-3.491,12.058,12.058,0,0,1-3.564-9.009q0-6.372,3.821-10.046t10.217-3.674q4.419,0,6.4,1.172V57.1a8.8,8.8,0,0,0-5.4-1.807,7.109,7.109,0,0,0-5.261,1.941,7.242,7.242,0,0,0-1.941,5.359,7.124,7.124,0,0,0,1.855,5.212,6.819,6.819,0,0,0,5.1,1.892,10.183,10.183,0,0,0,5.64-1.807Zm14.96-28.052a4.506,4.506,0,0,1-3.2-1.16,3.736,3.736,0,0,1-1.245-2.844,3.6,3.6,0,0,1,1.245-2.832,5.222,5.222,0,0,1,6.409,0,3.619,3.619,0,0,1,1.233,2.832,3.722,3.722,0,0,1-1.233,2.881A4.583,4.583,0,0,1,140.974,46.045ZM144.782,75h-7.715V50h7.715Zm33.295,0h-7.3V71.411h-.1a8.148,8.148,0,0,1-7.446,4.2,7.789,7.789,0,0,1-5.725-2.063,7.392,7.392,0,0,1-2.087-5.505q0-7.275,8.618-8.4l6.787-.9q0-4.1-4.443-4.1a15.167,15.167,0,0,0-8.5,2.661V51.489a19.114,19.114,0,0,1,4.407-1.465,23.165,23.165,0,0,1,5.09-.635q10.693,0,10.693,10.669Zm-7.251-10.156V63.159l-4.541.586q-3.76.488-3.76,3.394a2.8,2.8,0,0,0,.916,2.161,3.518,3.518,0,0,0,2.478.842,4.567,4.567,0,0,0,3.54-1.5A5.423,5.423,0,0,0,170.826,64.844Z" transform="translate(227.868 387)" fill="#fff"/></g></svg>