<svg xmlns="http://www.w3.org/2000/svg" width="153.452" height="104.645" viewBox="0 0 153.452 104.645"><g transform="translate(-228.127 -346.226)"><circle cx="29.468" cy="29.468" r="29.468" transform="translate(228.127 391.936)" fill="#ffc700"/><path d="M34.239,0H28.165V-16.339q0-2.647.229-5.846h-.152a28.768,28.768,0,0,1-.857,3.618L20.985,0H15.958L9.445-18.376a35.759,35.759,0,0,1-.857-3.809H8.417q.248,4.037.248,7.084V0H3.123V-27.308H12.13l5.58,16.187a22.79,22.79,0,0,1,.971,3.9H18.8a39.308,39.308,0,0,1,1.085-3.942l5.58-16.148h8.779ZM53.83.476a10.483,10.483,0,0,1-7.665-2.733,9.907,9.907,0,0,1-2.79-7.417,9.907,9.907,0,0,1,2.895-7.57A10.937,10.937,0,0,1,54.1-19.976a10.356,10.356,0,0,1,7.617,2.733,9.714,9.714,0,0,1,2.761,7.227,10.311,10.311,0,0,1-2.847,7.674A10.6,10.6,0,0,1,53.83.476Zm.152-15.844A4.014,4.014,0,0,0,50.669-13.9,6.466,6.466,0,0,0,49.488-9.75q0,5.618,4.532,5.618,4.323,0,4.323-5.77Q58.343-15.368,53.982-15.368Zm6.456-13.368-5.96,6.151H50.136l4.951-6.151ZM91.607-19.5,84.351,0H77.5L70.583-19.5H77.02l3.39,12.016a17.549,17.549,0,0,1,.667,3.466h.076a19.668,19.668,0,0,1,.7-3.352L85.322-19.5ZM116-8.036H103.275q.3,4.247,5.351,4.247a10.447,10.447,0,0,0,5.656-1.523V-.971A14.858,14.858,0,0,1,107.255.476q-4.723,0-7.332-2.618a9.893,9.893,0,0,1-2.609-7.3,10.435,10.435,0,0,1,2.818-7.693,9.389,9.389,0,0,1,6.932-2.837,8.522,8.522,0,0,1,6.6,2.533A9.753,9.753,0,0,1,116-10.569Zm-5.58-3.694q0-4.189-3.39-4.189a3.236,3.236,0,0,0-2.5,1.2,5.445,5.445,0,0,0-1.285,2.99ZM127.3-22.585a3.515,3.515,0,0,1-2.495-.9,2.914,2.914,0,0,1-.971-2.219,2.811,2.811,0,0,1,.971-2.209,3.631,3.631,0,0,1,2.495-.857,3.623,3.623,0,0,1,2.5.857,2.823,2.823,0,0,1,.962,2.209,2.9,2.9,0,0,1-.962,2.247A3.574,3.574,0,0,1,127.3-22.585ZM130.274,0h-6.018V-19.5h6.018Zm8.47-.514V-5.389A12.812,12.812,0,0,0,141.7-4.056a9.818,9.818,0,0,0,2.79.438,5.984,5.984,0,0,0,2.523-.438,1.415,1.415,0,0,0,.924-1.333,1.233,1.233,0,0,0-.419-.952,3.894,3.894,0,0,0-1.076-.667,12.21,12.21,0,0,0-1.438-.514q-.781-.229-1.5-.514a14.414,14.414,0,0,1-2.047-.943,5.917,5.917,0,0,1-1.485-1.171,4.6,4.6,0,0,1-.914-1.542,6.155,6.155,0,0,1-.314-2.076,5.344,5.344,0,0,1,.714-2.818,5.833,5.833,0,0,1,1.9-1.933,8.7,8.7,0,0,1,2.723-1.1,14.2,14.2,0,0,1,3.19-.352,17.7,17.7,0,0,1,2.628.2,19.614,19.614,0,0,1,2.628.581v4.646a9.5,9.5,0,0,0-2.447-1,10.322,10.322,0,0,0-2.561-.333,5.675,5.675,0,0,0-1.114.1,3.669,3.669,0,0,0-.924.3,1.7,1.7,0,0,0-.628.514,1.184,1.184,0,0,0-.229.714,1.319,1.319,0,0,0,.343.914,2.977,2.977,0,0,0,.9.657,8.835,8.835,0,0,0,1.228.5q.676.219,1.343.448a17.455,17.455,0,0,1,2.171.914,6.941,6.941,0,0,1,1.666,1.162,4.562,4.562,0,0,1,1.066,1.562,5.55,5.55,0,0,1,.371,2.133A5.563,5.563,0,0,1,152.959-3a6.022,6.022,0,0,1-2,2A9.068,9.068,0,0,1,148.084.124a15.941,15.941,0,0,1-3.38.352A17.425,17.425,0,0,1,138.743-.514ZM31.469,34.85a1.393,1.393,0,0,0-.158-.7,1.5,1.5,0,0,0-.356-.435,1.294,1.294,0,0,0-.4-.224,1.052,1.052,0,0,0-.277-.066,3.193,3.193,0,0,0-2.188.91A9.051,9.051,0,0,0,26.3,36.669a19.757,19.757,0,0,0-1.384,3.138q-.593,1.714-.989,3.322,1.582-1.213,2.953-2.241a25.713,25.713,0,0,0,2.386-2,9.834,9.834,0,0,0,1.608-1.951A3.942,3.942,0,0,0,31.469,34.85Zm12.788,10.1a4.344,4.344,0,0,1-.765,2.215,15.7,15.7,0,0,1-2.057,2.584,25.844,25.844,0,0,1-3.125,2.7,23.8,23.8,0,0,1-3.533,2.162,20.336,20.336,0,0,1-3.731,1.424,14.094,14.094,0,0,1-3.691.514,10.441,10.441,0,0,1-3.942-.7,7.7,7.7,0,0,1-2.927-2.057,9.151,9.151,0,0,1-1.833-3.388,15.7,15.7,0,0,1-.633-4.667,17.613,17.613,0,0,1,.3-3.217,21.063,21.063,0,0,1,.883-3.256,19.464,19.464,0,0,1,1.45-3.138,18.608,18.608,0,0,1,3.6-4.562,12.611,12.611,0,0,1,2.017-1.542A11.252,11.252,0,0,1,28.714,28.9a9.246,9.246,0,0,1,2.887-.435,5.272,5.272,0,0,1,2.254.461A5.556,5.556,0,0,1,35.53,30.1a5.1,5.1,0,0,1,1.055,1.608,4.616,4.616,0,0,1,.369,1.767,8.511,8.511,0,0,1-.883,3.836,13.465,13.465,0,0,1-2.465,3.4,26.5,26.5,0,0,1-3.81,3.177q-2.228,1.556-4.917,3.19a2.605,2.605,0,0,0-.409.237q-.277.185-.277.237a3.626,3.626,0,0,0,.264,1.134,3.5,3.5,0,0,0,.738,1.134,4.078,4.078,0,0,0,1.279.883,4.439,4.439,0,0,0,1.859.356A12.652,12.652,0,0,0,31.68,50.6,16.1,16.1,0,0,0,35,49.272a20.843,20.843,0,0,0,3.19-2.109,24.455,24.455,0,0,0,2.953-2.795,3.623,3.623,0,0,1,1.042-.87,2.122,2.122,0,0,1,.962-.264,1.012,1.012,0,0,1,.778.369A2.055,2.055,0,0,1,44.257,44.948ZM97.819,57.3a11.9,11.9,0,0,1-5.884,1.181,9.952,9.952,0,0,1-7.274-2.723,9.4,9.4,0,0,1-2.78-7.027,10.361,10.361,0,0,1,2.98-7.836,11.014,11.014,0,0,1,7.969-2.866,10.226,10.226,0,0,1,4.989.914v5.1a6.86,6.86,0,0,0-4.208-1.409,5.545,5.545,0,0,0-4.1,1.514,5.649,5.649,0,0,0-1.514,4.18,5.557,5.557,0,0,0,1.447,4.066,5.319,5.319,0,0,0,3.98,1.476,7.942,7.942,0,0,0,4.4-1.409Zm11.669-21.88a3.515,3.515,0,0,1-2.495-.9,2.914,2.914,0,0,1-.971-2.219,2.811,2.811,0,0,1,.971-2.209,4.073,4.073,0,0,1,5,0,2.823,2.823,0,0,1,.962,2.209,2.9,2.9,0,0,1-.962,2.247A3.574,3.574,0,0,1,109.488,35.415ZM112.459,58h-6.018V38.5h6.018Zm25.97,0h-5.694V55.2h-.076a6.355,6.355,0,0,1-5.808,3.275,6.075,6.075,0,0,1-4.466-1.609,5.766,5.766,0,0,1-1.628-4.294q0-5.675,6.722-6.551l5.294-.7q0-3.2-3.466-3.2a11.83,11.83,0,0,0-6.627,2.076V39.662a14.909,14.909,0,0,1,3.437-1.143,18.068,18.068,0,0,1,3.97-.5q8.341,0,8.341,8.322Zm-5.656-7.922V48.764l-3.542.457q-2.933.381-2.933,2.647a2.187,2.187,0,0,0,.714,1.685,2.744,2.744,0,0,0,1.933.657,3.563,3.563,0,0,0,2.761-1.171A4.23,4.23,0,0,0,132.773,50.078Z" transform="translate(227.868 375)"/></g></svg>